<?xml version="1.0" encoding="utf-8"?>
<!-- Generator: Adobe Illustrator 18.0.0, SVG Export Plug-In . SVG Version: 6.00 Build 0)  -->
<!DOCTYPE svg PUBLIC "-//W3C//DTD SVG 1.1//EN" "http://www.w3.org/Graphics/SVG/1.1/DTD/svg11.dtd">
<svg version="1.1" id="Calque_1" xmlns="http://www.w3.org/2000/svg" xmlns:xlink="http://www.w3.org/1999/xlink" x="0px" y="0px"
	 viewBox="0 0 36.2 53.3" enable-background="new 0 0 36.2 53.3" xml:space="preserve">
<g>
	<defs>
		<rect id="SVGID_1_" y="0" width="36.2" height="53.3"/>
	</defs>
	<clipPath id="SVGID_2_">
		<use xlink:href="#SVGID_1_"  overflow="visible"/>
	</clipPath>
	<g clip-path="url(#SVGID_2_)">
		<defs>
			<rect id="SVGID_3_" x="0" y="0" width="36.2" height="53.3"/>
		</defs>
		<clipPath id="SVGID_4_">
			<use xlink:href="#SVGID_3_"  overflow="visible"/>
		</clipPath>
		<g opacity="0.3" clip-path="url(#SVGID_4_)">
			<g>
				<defs>
					<rect id="SVGID_5_" x="-9" y="19.8" width="54.2" height="40.5"/>
				</defs>
				<clipPath id="SVGID_6_">
					<use xlink:href="#SVGID_5_"  overflow="visible"/>
				</clipPath>
				<path clip-path="url(#SVGID_6_)" fill="none" stroke="#FFFFFF" d="M7.4,21.2c-4.2,3.2-6.9,8.3-6.9,14c0,9.7,7.9,17.6,17.6,17.6
					s17.6-7.9,17.6-17.6c0-5.6-2.7-10.7-6.8-13.9"/>
			</g>
		</g>
		<path clip-path="url(#SVGID_4_)" fill="#FFFFFF" d="M28.2,12.4v13.7c0,6.1-4.5,11-10.1,11S8,32.2,8,26.1V12.4
			c0-6.1,4.5-11,10.1-11S28.2,6.3,28.2,12.4 M6.8,12.4v13.7c0,6.8,5.1,12.4,11.3,12.4c6.2,0,11.3-5.5,11.3-12.4V12.4
			C29.4,5.6,24.3,0,18.1,0C11.9,0,6.8,5.6,6.8,12.4"/>
		<path clip-path="url(#SVGID_4_)" fill="#FFFFFF" d="M17.5,24.2v5.3c0,0.4,0.3,0.7,0.6,0.7c0.3,0,0.6-0.3,0.6-0.7v-5.3
			c0-0.4-0.3-0.7-0.6-0.7C17.8,23.5,17.5,23.8,17.5,24.2"/>
	</g>
</g>
</svg>
