 0
SECTION
 2
HEADER
 9
$ACADVER
 1
AC1009
 0
ENDSEC
 0
SECTION
 2
TABLES
 0
TABLE
 2
LTYPE
 70
1
 0
LTYPE
 2
CONTINUOUS
 70
64
 3
solid line
 72
65
 73
0
 40
0.0
 0
ENDTAB
 0
TABLE
 2
LAYER
 70
6
 0
LAYER
 2
0
 70
0
 62
7
 6
CONTINUOUS
 0
LAYER
 2
SPLINE_MOVMENT
 70
64
 62
7
 6
CONTINUOUS
 0
ENDTAB
 0
ENDSEC
 0
SECTION
 2
BLOCKS
 0
ENDSEC
 0
SECTION
 2
ENTITIES
 0
POLYLINE
 8
SPLINE_MOVMENT
 66
1
 10
0.0
 20
0.0
 30
0.0
 70
8
 0
VERTEX
 8
SPLINE_MOVMENT
 10
3.9362
 20
73.6524
 30
43.7027
 70
32
 0
VERTEX
 8
SPLINE_MOVMENT
 10
2.3988
 20
66.0612
 30
43.8773
 70
32
 0
VERTEX
 8
SPLINE_MOVMENT
 10
1.358
 20
57.4403
 30
44.0511
 70
32
 0
VERTEX
 8
SPLINE_MOVMENT
 10
1.1567
 20
50.6799
 30
44.166
 70
32
 0
VERTEX
 8
SPLINE_MOVMENT
 10
1.4711
 20
45.8483
 30
44.2322
 70
32
 0
VERTEX
 8
SPLINE_MOVMENT
 10
2.0813
 20
42.1397
 30
44.2701
 70
32
 0
VERTEX
 8
SPLINE_MOVMENT
 10
2.785
 20
39.519
 30
44.2875
 70
32
 0
VERTEX
 8
SPLINE_MOVMENT
 10
3.7258
 20
37.0856
 30
44.2936
 70
32
 0
VERTEX
 8
SPLINE_MOVMENT
 10
4.0717
 20
36.3071
 30
44.2459
 70
32
 0
VERTEX
 8
SPLINE_MOVMENT
 10
4.3982
 20
35.5218
 30
44.1052
 70
32
 0
VERTEX
 8
SPLINE_MOVMENT
 10
4.7057
 20
34.7304
 30
43.8754
 70
32
 0
VERTEX
 8
SPLINE_MOVMENT
 10
4.9945
 20
33.9338
 30
43.5604
 70
32
 0
VERTEX
 8
SPLINE_MOVMENT
 10
5.5175
 20
32.3271
 30
42.6904
 70
32
 0
VERTEX
 8
SPLINE_MOVMENT
 10
5.9701
 20
30.7074
 30
41.526
 70
32
 0
VERTEX
 8
SPLINE_MOVMENT
 10
6.355
 20
29.0801
 30
40.0983
 70
32
 0
VERTEX
 8
SPLINE_MOVMENT
 10
6.8116
 20
26.6372
 30
37.5308
 70
32
 0
VERTEX
 8
SPLINE_MOVMENT
 10
7.2099
 20
23.4055
 30
33.4749
 70
32
 0
VERTEX
 8
SPLINE_MOVMENT
 10
7.4021
 20
18.7026
 30
26.5391
 70
32
 0
VERTEX
 8
SPLINE_MOVMENT
 10
6.7219
 20
10.9854
 30
13.7027
 70
32
 0
VERTEX
 8
SPLINE_MOVMENT
 10
5.9255
 20
7.5409
 30
8.1494
 70
32
 0
VERTEX
 8
SPLINE_MOVMENT
 10
5.4464
 20
6.0835
 30
6.1047
 70
32
 0
VERTEX
 8
SPLINE_MOVMENT
 10
5.1035
 20
5.2227
 30
5.0836
 70
32
 0
VERTEX
 8
SPLINE_MOVMENT
 10
4.745
 20
4.457
 30
4.3723
 70
32
 0
VERTEX
 8
SPLINE_MOVMENT
 10
4.5609
 20
4.1116
 30
4.1425
 70
32
 0
VERTEX
 8
SPLINE_MOVMENT
 10
4.3739
 20
3.792
 30
4.0018
 70
32
 0
VERTEX
 8
SPLINE_MOVMENT
 10
4.1845
 20
3.499
 30
3.9541
 70
32
 0
VERTEX
 8
SPLINE_MOVMENT
 10
3.6138
 20
2.6971
 30
3.9929
 70
32
 0
VERTEX
 8
SPLINE_MOVMENT
 10
3.0411
 20
1.965
 30
4.103
 70
32
 0
VERTEX
 8
SPLINE_MOVMENT
 10
2.4604
 20
1.2978
 30
4.2746
 70
32
 0
VERTEX
 8
SPLINE_MOVMENT
 10
1.6636
 20
0.501
 30
4.5822
 70
32
 0
VERTEX
 8
SPLINE_MOVMENT
 10
0.8278
 20
-0.2005
 30
4.9589
 70
32
 0
VERTEX
 8
SPLINE_MOVMENT
 10
-0.061
 20
-0.818
 30
5.3817
 70
32
 0
VERTEX
 8
SPLINE_MOVMENT
 10
-1.2681
 20
-1.4893
 30
5.9398
 70
32
 0
VERTEX
 8
SPLINE_MOVMENT
 10
-2.6078
 20
-2.0698
 30
6.4889
 70
32
 0
VERTEX
 8
SPLINE_MOVMENT
 10
-4.1076
 20
-2.5819
 30
6.9841
 70
32
 0
VERTEX
 8
SPLINE_MOVMENT
 10
-5.7952
 20
-3.0481
 30
7.3803
 70
32
 0
VERTEX
 8
SPLINE_MOVMENT
 10
-7.2991
 20
-3.403
 30
7.5959
 70
32
 0
VERTEX
 8
SPLINE_MOVMENT
 10
-9.3944
 20
-3.843
 30
7.7008
 70
32
 0
VERTEX
 8
SPLINE_MOVMENT
 10
-10.2217
 20
-4.0793
 30
7.6975
 70
32
 0
VERTEX
 8
SPLINE_MOVMENT
 10
-10.591
 20
-4.2391
 30
7.6936
 70
32
 0
VERTEX
 8
SPLINE_MOVMENT
 10
-10.9326
 20
-4.4246
 30
7.6882
 70
32
 0
VERTEX
 8
SPLINE_MOVMENT
 10
-11.2481
 20
-4.6344
 30
7.6814
 70
32
 0
VERTEX
 8
SPLINE_MOVMENT
 10
-11.8061
 20
-5.1204
 30
7.6638
 70
32
 0
VERTEX
 8
SPLINE_MOVMENT
 10
-12.2767
 20
-5.6852
 30
7.6414
 70
32
 0
VERTEX
 8
SPLINE_MOVMENT
 10
-12.6713
 20
-6.3167
 30
7.6148
 70
32
 0
VERTEX
 8
SPLINE_MOVMENT
 10
-13.0014
 20
-7.0028
 30
7.5845
 70
32
 0
VERTEX
 8
SPLINE_MOVMENT
 10
-13.401
 20
-8.1077
 30
7.5331
 70
32
 0
VERTEX
 8
SPLINE_MOVMENT
 10
-14.8347
 20
-13.3308
 30
7.2512
 70
32
 0
VERTEX
 8
SPLINE_MOVMENT
 10
-15.1276
 20
-13.9329
 30
7.212
 70
32
 0
VERTEX
 8
SPLINE_MOVMENT
 10
-15.4771
 20
-14.4627
 30
7.1747
 70
32
 0
VERTEX
 8
SPLINE_MOVMENT
 10
-15.6767
 20
-14.6967
 30
7.1569
 70
32
 0
VERTEX
 8
SPLINE_MOVMENT
 10
-15.8948
 20
-14.9082
 30
7.1397
 70
32
 0
VERTEX
 8
SPLINE_MOVMENT
 10
-16.1328
 20
-15.0955
 30
7.1233
 70
32
 0
VERTEX
 8
SPLINE_MOVMENT
 10
-16.3922
 20
-15.2572
 30
7.1077
 70
32
 0
VERTEX
 8
SPLINE_MOVMENT
 10
-16.6743
 20
-15.3918
 30
7.093
 70
32
 0
VERTEX
 8
SPLINE_MOVMENT
 10
-16.9807
 20
-15.4977
 30
7.0792
 70
32
 0
VERTEX
 8
SPLINE_MOVMENT
 10
-17.3128
 20
-15.5735
 30
7.0664
 70
32
 0
VERTEX
 8
SPLINE_MOVMENT
 10
-17.672
 20
-15.6177
 30
7.0546
 70
32
 0
VERTEX
 8
SPLINE_MOVMENT
 10
-18.0598
 20
-15.6286
 30
7.044
 70
32
 0
VERTEX
 8
SPLINE_MOVMENT
 10
-18.9268
 20
-15.545
 30
7.0265
 70
32
 0
VERTEX
 8
SPLINE_MOVMENT
 10
-19.9254
 20
-15.3107
 30
7.0142
 70
32
 0
VERTEX
 8
SPLINE_MOVMENT
 10
-20.4776
 20
-15.1332
 30
7.0103
 70
32
 0
VERTEX
 8
SPLINE_MOVMENT
 10
-21.6952
 20
-14.65
 30
7.007
 70
32
 0
VERTEX
 8
SPLINE_MOVMENT
 10
-22.9172
 20
-14.0322
 30
6.9841
 70
32
 0
VERTEX
 8
SPLINE_MOVMENT
 10
-23.9944
 20
-13.3294
 30
6.9179
 70
32
 0
VERTEX
 8
SPLINE_MOVMENT
 10
-24.9316
 20
-12.5522
 30
6.8122
 70
32
 0
VERTEX
 8
SPLINE_MOVMENT
 10
-25.7332
 20
-11.711
 30
6.6706
 70
32
 0
VERTEX
 8
SPLINE_MOVMENT
 10
-26.4039
 20
-10.8165
 30
6.4971
 70
32
 0
VERTEX
 8
SPLINE_MOVMENT
 10
-26.9483
 20
-9.8792
 30
6.2953
 70
32
 0
VERTEX
 8
SPLINE_MOVMENT
 10
-27.3709
 20
-8.9098
 30
6.0691
 70
32
 0
VERTEX
 8
SPLINE_MOVMENT
 10
-27.6763
 20
-7.9188
 30
5.8221
 70
32
 0
VERTEX
 8
SPLINE_MOVMENT
 10
-27.8691
 20
-6.9168
 30
5.5582
 70
32
 0
VERTEX
 8
SPLINE_MOVMENT
 10
-27.9539
 20
-5.9144
 30
5.2811
 70
32
 0
VERTEX
 8
SPLINE_MOVMENT
 10
-27.9352
 20
-4.9221
 30
4.9946
 70
32
 0
VERTEX
 8
SPLINE_MOVMENT
 10
-27.8177
 20
-3.9505
 30
4.7025
 70
32
 0
VERTEX
 8
SPLINE_MOVMENT
 10
-27.6059
 20
-3.0103
 30
4.4085
 70
32
 0
VERTEX
 8
SPLINE_MOVMENT
 10
-27.3045
 20
-2.1119
 30
4.1163
 70
32
 0
VERTEX
 8
SPLINE_MOVMENT
 10
-26.9179
 20
-1.2659
 30
3.8298
 70
32
 0
VERTEX
 8
SPLINE_MOVMENT
 10
-26.4508
 20
-0.483
 30
3.5527
 70
32
 0
VERTEX
 8
SPLINE_MOVMENT
 10
-25.9078
 20
0.2263
 30
3.2888
 70
32
 0
VERTEX
 8
SPLINE_MOVMENT
 10
-25.2934
 20
0.8514
 30
3.0419
 70
32
 0
VERTEX
 8
SPLINE_MOVMENT
 10
-24.6123
 20
1.3818
 30
2.8156
 70
32
 0
VERTEX
 8
SPLINE_MOVMENT
 10
-23.8689
 20
1.8068
 30
2.6138
 70
32
 0
VERTEX
 8
SPLINE_MOVMENT
 10
-23.068
 20
2.1159
 30
2.4403
 70
32
 0
VERTEX
 8
SPLINE_MOVMENT
 10
-22.2141
 20
2.2985
 30
2.2988
 70
32
 0
VERTEX
 8
SPLINE_MOVMENT
 10
-21.3117
 20
2.344
 30
2.193
 70
32
 0
VERTEX
 8
SPLINE_MOVMENT
 10
-20.3654
 20
2.2418
 30
2.1268
 70
32
 0
VERTEX
 8
SPLINE_MOVMENT
 10
-19.3799
 20
1.9815
 30
2.1039
 70
32
 0
VERTEX
 8
SPLINE_MOVMENT
 10
-18.6164
 20
1.6891
 30
2.1314
 70
32
 0
VERTEX
 8
SPLINE_MOVMENT
 10
-17.8851
 20
1.3479
 30
2.2101
 70
32
 0
VERTEX
 8
SPLINE_MOVMENT
 10
-16.8405
 20
0.7527
 30
2.4111
 70
32
 0
VERTEX
 8
SPLINE_MOVMENT
 10
-15.8484
 20
0.0684
 30
2.694
 70
32
 0
VERTEX
 8
SPLINE_MOVMENT
 10
-14.5871
 20
-0.9614
 30
3.1645
 70
32
 0
VERTEX
 8
SPLINE_MOVMENT
 10
-10.6503
 20
-4.8975
 30
4.8881
 70
32
 0
VERTEX
 8
SPLINE_MOVMENT
 10
-9.0584
 20
-6.5005
 30
5.3877
 70
32
 0
VERTEX
 8
SPLINE_MOVMENT
 10
-7.6961
 20
-7.7583
 30
5.625
 70
32
 0
VERTEX
 8
SPLINE_MOVMENT
 10
-6.6044
 20
-8.6679
 30
5.6775
 70
32
 0
VERTEX
 8
SPLINE_MOVMENT
 10
-5.4395
 20
-9.5351
 30
5.6003
 70
32
 0
VERTEX
 8
SPLINE_MOVMENT
 10
-4.1896
 20
-10.3474
 30
5.3736
 70
32
 0
VERTEX
 8
SPLINE_MOVMENT
 10
-3.3034
 20
-10.8524
 30
5.1296
 70
32
 0
VERTEX
 8
SPLINE_MOVMENT
 10
-1.8858
 20
-11.5458
 30
4.6097
 70
32
 0
VERTEX
 8
SPLINE_MOVMENT
 10
2.5278
 20
-13.422
 30
2.3972
 70
32
 0
VERTEX
 8
SPLINE_MOVMENT
 10
3.4729
 20
-13.7017
 30
2.0046
 70
32
 0
VERTEX
 8
SPLINE_MOVMENT
 10
3.9545
 20
-13.8
 30
1.8429
 70
32
 0
VERTEX
 8
SPLINE_MOVMENT
 10
4.1742
 20
-13.8287
 30
1.7833
 70
32
 0
VERTEX
 8
SPLINE_MOVMENT
 10
4.3775
 20
-13.8424
 30
1.7397
 70
32
 0
VERTEX
 8
SPLINE_MOVMENT
 10
6.7016
 20
-13.8822
 30
1.4137
 70
32
 0
VERTEX
 8
SPLINE_MOVMENT
 10
7.877
 20
-13.9051
 30
1.3628
 70
32
 0
VERTEX
 8
SPLINE_MOVMENT
 10
8.6669
 20
-13.9167
 30
1.4023
 70
32
 0
VERTEX
 8
SPLINE_MOVMENT
 10
9.3803
 20
-13.9199
 30
1.5063
 70
32
 0
VERTEX
 8
SPLINE_MOVMENT
 10
9.9533
 20
-13.9138
 30
1.6436
 70
32
 0
VERTEX
 8
SPLINE_MOVMENT
 10
10.6028
 20
-13.8938
 30
1.8562
 70
32
 0
VERTEX
 8
SPLINE_MOVMENT
 10
10.6777
 20
-13.8864
 30
1.8851
 70
32
 0
VERTEX
 8
SPLINE_MOVMENT
 10
10.7537
 20
-13.8708
 30
1.9167
 70
32
 0
VERTEX
 8
SPLINE_MOVMENT
 10
10.9086
 20
-13.8164
 30
1.9876
 70
32
 0
VERTEX
 8
SPLINE_MOVMENT
 10
11.0666
 20
-13.733
 30
2.0679
 70
32
 0
VERTEX
 8
SPLINE_MOVMENT
 10
11.2271
 20
-13.6233
 30
2.1567
 70
32
 0
VERTEX
 8
SPLINE_MOVMENT
 10
11.4707
 20
-13.4148
 30
2.3036
 70
32
 0
VERTEX
 8
SPLINE_MOVMENT
 10
11.797
 20
-13.0682
 30
2.5201
 70
32
 0
VERTEX
 8
SPLINE_MOVMENT
 10
12.2777
 20
-12.4429
 30
2.8734
 70
32
 0
VERTEX
 8
SPLINE_MOVMENT
 10
13.2533
 20
-10.8488
 30
3.695
 70
32
 0
VERTEX
 8
SPLINE_MOVMENT
 10
13.8348
 20
-9.7399
 30
4.2647
 70
32
 0
VERTEX
 8
SPLINE_MOVMENT
 10
14.0867
 20
-9.3209
 30
4.53
 70
32
 0
VERTEX
 8
SPLINE_MOVMENT
 10
14.2546
 20
-9.1022
 30
4.6784
 70
32
 0
VERTEX
 8
SPLINE_MOVMENT
 10
14.423
 20
-8.9286
 30
4.8059
 70
32
 0
VERTEX
 8
SPLINE_MOVMENT
 10
14.5928
 20
-8.7969
 30
4.914
 70
32
 0
VERTEX
 8
SPLINE_MOVMENT
 10
14.7644
 20
-8.7041
 30
5.0043
 70
32
 0
VERTEX
 8
SPLINE_MOVMENT
 10
14.8511
 20
-8.6713
 30
5.0433
 70
32
 0
VERTEX
 8
SPLINE_MOVMENT
 10
14.9386
 20
-8.6472
 30
5.0783
 70
32
 0
VERTEX
 8
SPLINE_MOVMENT
 10
15.0268
 20
-8.6312
 30
5.1097
 70
32
 0
VERTEX
 8
SPLINE_MOVMENT
 10
15.1159
 20
-8.623
 30
5.1376
 70
32
 0
VERTEX
 8
SPLINE_MOVMENT
 10
15.297
 20
-8.6286
 30
5.1837
 70
32
 0
VERTEX
 8
SPLINE_MOVMENT
 10
15.4825
 20
-8.6609
 30
5.2182
 70
32
 0
VERTEX
 8
SPLINE_MOVMENT
 10
15.6732
 20
-8.7168
 30
5.2426
 70
32
 0
VERTEX
 8
SPLINE_MOVMENT
 10
15.97
 20
-8.8384
 30
5.2637
 70
32
 0
VERTEX
 8
SPLINE_MOVMENT
 10
16.499
 20
-9.1162
 30
5.2704
 70
32
 0
VERTEX
 8
SPLINE_MOVMENT
 10
17.858
 20
-9.845
 30
5.2683
 70
32
 0
VERTEX
 8
SPLINE_MOVMENT
 10
18.4346
 20
-10.074
 30
5.3006
 70
32
 0
VERTEX
 8
SPLINE_MOVMENT
 10
18.9009
 20
-10.2091
 30
5.3485
 70
32
 0
VERTEX
 8
SPLINE_MOVMENT
 10
19.3985
 20
-10.3014
 30
5.4227
 70
32
 0
VERTEX
 8
SPLINE_MOVMENT
 10
19.6497
 20
-10.3157
 30
5.4718
 70
32
 0
VERTEX
 8
SPLINE_MOVMENT
 10
19.9132
 20
-10.2954
 30
5.5339
 70
32
 0
VERTEX
 8
SPLINE_MOVMENT
 10
20.1878
 20
-10.2421
 30
5.6078
 70
32
 0
VERTEX
 8
SPLINE_MOVMENT
 10
20.4719
 20
-10.1574
 30
5.6925
 70
32
 0
VERTEX
 8
SPLINE_MOVMENT
 10
21.0629
 20
-9.8996
 30
5.8897
 70
32
 0
VERTEX
 8
SPLINE_MOVMENT
 10
21.6748
 20
-9.5345
 30
6.1169
 70
32
 0
VERTEX
 8
SPLINE_MOVMENT
 10
22.6065
 20
-8.8125
 30
6.4948
 70
32
 0
VERTEX
 8
SPLINE_MOVMENT
 10
23.5203
 20
-7.9184
 30
6.8911
 70
32
 0
VERTEX
 8
SPLINE_MOVMENT
 10
24.377
 20
-6.8936
 30
7.2762
 70
32
 0
VERTEX
 8
SPLINE_MOVMENT
 10
25.1378
 20
-5.7799
 30
7.6209
 70
32
 0
VERTEX
 8
SPLINE_MOVMENT
 10
25.7637
 20
-4.619
 30
7.8958
 70
32
 0
VERTEX
 8
SPLINE_MOVMENT
 10
26.0868
 20
-3.8393
 30
8.0256
 70
32
 0
VERTEX
 8
SPLINE_MOVMENT
 10
26.321
 20
-3.0694
 30
8.1026
 70
32
 0
VERTEX
 8
SPLINE_MOVMENT
 10
26.4549
 20
-2.3216
 30
8.1181
 70
32
 0
VERTEX
 8
SPLINE_MOVMENT
 10
26.4805
 20
-1.9599
 30
8.1
 70
32
 0
VERTEX
 8
SPLINE_MOVMENT
 10
26.4768
 20
-1.6084
 30
8.0632
 70
32
 0
VERTEX
 8
SPLINE_MOVMENT
 10
26.4422
 20
-1.2685
 30
8.0067
 70
32
 0
VERTEX
 8
SPLINE_MOVMENT
 10
26.3753
 20
-0.9419
 30
7.9294
 70
32
 0
VERTEX
 8
SPLINE_MOVMENT
 10
26.2746
 20
-0.6301
 30
7.8301
 70
32
 0
VERTEX
 8
SPLINE_MOVMENT
 10
26.1388
 20
-0.3347
 30
7.7079
 70
32
 0
VERTEX
 8
SPLINE_MOVMENT
 10
25.9662
 20
-0.0571
 30
7.5615
 70
32
 0
VERTEX
 8
SPLINE_MOVMENT
 10
25.7557
 20
0.2011
 30
7.3899
 70
32
 0
VERTEX
 8
SPLINE_MOVMENT
 10
25.5055
 20
0.4384
 30
7.192
 70
32
 0
VERTEX
 8
SPLINE_MOVMENT
 10
25.2145
 20
0.6531
 30
6.9668
 70
32
 0
VERTEX
 8
SPLINE_MOVMENT
 10
24.881
 20
0.8438
 30
6.7131
 70
32
 0
VERTEX
 8
SPLINE_MOVMENT
 10
24.081
 20
1.1469
 30
6.1159
 70
32
 0
VERTEX
 8
SPLINE_MOVMENT
 10
23.094
 20
1.3353
 30
5.3919
 70
32
 0
VERTEX
 8
SPLINE_MOVMENT
 10
21.9085
 20
1.3968
 30
4.5321
 70
32
 0
VERTEX
 8
SPLINE_MOVMENT
 10
20.5129
 20
1.3189
 30
3.5281
 70
32
 0
VERTEX
 8
SPLINE_MOVMENT
 10
18.8958
 20
1.0893
 30
2.3709
 70
32
 0
VERTEX
 8
SPLINE_MOVMENT
 10
18.5204
 20
1.0064
 30
2.1348
 70
32
 0
VERTEX
 8
SPLINE_MOVMENT
 10
18.1362
 20
0.9119
 30
1.9515
 70
32
 0
VERTEX
 8
SPLINE_MOVMENT
 10
17.7427
 20
0.8076
 30
1.8159
 70
32
 0
VERTEX
 8
SPLINE_MOVMENT
 10
17.3398
 20
0.6956
 30
1.7229
 70
32
 0
VERTEX
 8
SPLINE_MOVMENT
 10
16.7872
 20
0.5375
 30
1.6567
 70
32
 0
VERTEX
 8
SPLINE_MOVMENT
 10
16.0709
 20
0.3324
 30
1.6499
 70
32
 0
VERTEX
 8
SPLINE_MOVMENT
 10
14.8624
 20
0.0078
 30
1.7594
 70
32
 0
VERTEX
 8
SPLINE_MOVMENT
 10
12.895
 20
-0.3984
 30
2.0149
 70
32
 0
VERTEX
 8
SPLINE_MOVMENT
 10
12.1951
 20
-0.494
 30
2.0766
 70
32
 0
VERTEX
 8
SPLINE_MOVMENT
 10
11.2875
 20
-0.574
 30
2.1078
 70
32
 0
VERTEX
 8
SPLINE_MOVMENT
 10
10.2788
 20
-0.6157
 30
2.0607
 70
32
 0
VERTEX
 8
SPLINE_MOVMENT
 10
8.7175
 20
-0.6192
 30
1.8505
 70
32
 0
VERTEX
 8
SPLINE_MOVMENT
 10
7.1302
 20
-0.5815
 30
1.5805
 70
32
 0
VERTEX
 8
SPLINE_MOVMENT
 10
5.5194
 20
-0.5594
 30
1.4359
 70
32
 0
VERTEX
 8
SPLINE_MOVMENT
 10
5.4218
 20
-0.56
 30
1.4411
 70
32
 0
VERTEX
 8
SPLINE_MOVMENT
 10
5.1691
 20
-0.5605
 30
1.4804
 70
32
 0
VERTEX
 8
SPLINE_MOVMENT
 10
4.1796
 20
-0.5588
 30
1.7377
 70
32
 0
VERTEX
 8
SPLINE_MOVMENT
 10
2.4453
 20
-0.5477
 30
2.2698
 70
32
 0
VERTEX
 8
SPLINE_MOVMENT
 10
1.0977
 20
-0.525
 30
2.6104
 70
32
 0
VERTEX
 8
SPLINE_MOVMENT
 10
-4.7074
 20
-0.1312
 30
3.2829
 70
32
 0
VERTEX
 8
SPLINE_MOVMENT
 10
-13.1687
 20
1.0242
 30
4.7638
 70
32
 0
VERTEX
 8
SPLINE_MOVMENT
 10
-20.1612
 20
2.5911
 30
6.165
 70
32
 0
VERTEX
 8
SPLINE_MOVMENT
 10
-24.0943
 20
3.8781
 30
6.905
 70
32
 0
VERTEX
 8
SPLINE_MOVMENT
 10
-26.2572
 20
4.832
 30
7.2344
 70
32
 0
VERTEX
 8
SPLINE_MOVMENT
 10
-27.5897
 20
5.5935
 30
7.3675
 70
32
 0
VERTEX
 8
SPLINE_MOVMENT
 10
-28.324
 20
6.1217
 30
7.3927
 70
32
 0
VERTEX
 8
SPLINE_MOVMENT
 10
-28.9252
 20
6.6654
 30
7.3614
 70
32
 0
VERTEX
 8
SPLINE_MOVMENT
 10
-29.1731
 20
6.9429
 30
7.323
 70
32
 0
VERTEX
 8
SPLINE_MOVMENT
 10
-29.3846
 20
7.224
 30
7.2687
 70
32
 0
VERTEX
 8
SPLINE_MOVMENT
 10
-29.5585
 20
7.5086
 30
7.1977
 70
32
 0
VERTEX
 8
SPLINE_MOVMENT
 10
-29.6938
 20
7.7967
 30
7.1096
 70
32
 0
VERTEX
 8
SPLINE_MOVMENT
 10
-29.7894
 20
8.088
 30
7.0036
 70
32
 0
VERTEX
 8
SPLINE_MOVMENT
 10
-29.8442
 20
8.3826
 30
6.8793
 70
32
 0
VERTEX
 8
SPLINE_MOVMENT
 10
-29.8571
 20
8.6804
 30
6.7358
 70
32
 0
VERTEX
 8
SPLINE_MOVMENT
 10
-29.8387
 20
8.97
 30
6.5724
 70
32
 0
VERTEX
 8
SPLINE_MOVMENT
 10
-29.7952
 20
9.2684
 30
6.3758
 70
32
 0
VERTEX
 8
SPLINE_MOVMENT
 10
-29.7205
 20
9.5734
 30
6.15
 70
32
 0
VERTEX
 8
SPLINE_MOVMENT
 10
-29.6082
 20
9.8829
 30
5.899
 70
32
 0
VERTEX
 8
SPLINE_MOVMENT
 10
-29.4522
 20
10.1947
 30
5.6266
 70
32
 0
VERTEX
 8
SPLINE_MOVMENT
 10
-29.2463
 20
10.5065
 30
5.3369
 70
32
 0
VERTEX
 8
SPLINE_MOVMENT
 10
-28.9843
 20
10.8162
 30
5.0338
 70
32
 0
VERTEX
 8
SPLINE_MOVMENT
 10
-28.6599
 20
11.1216
 30
4.7212
 70
32
 0
VERTEX
 8
SPLINE_MOVMENT
 10
-28.2671
 20
11.4204
 30
4.4032
 70
32
 0
VERTEX
 8
SPLINE_MOVMENT
 10
-27.7995
 20
11.7105
 30
4.0836
 70
32
 0
VERTEX
 8
SPLINE_MOVMENT
 10
-27.2509
 20
11.9897
 30
3.7665
 70
32
 0
VERTEX
 8
SPLINE_MOVMENT
 10
-26.3829
 20
12.3412
 30
3.3542
 70
32
 0
VERTEX
 8
SPLINE_MOVMENT
 10
-25.3453
 20
12.6642
 30
2.9626
 70
32
 0
VERTEX
 8
SPLINE_MOVMENT
 10
-24.1233
 20
12.9535
 30
2.6011
 70
32
 0
VERTEX
 8
SPLINE_MOVMENT
 10
-22.3142
 20
13.2598
 30
2.2058
 70
32
 0
VERTEX
 8
SPLINE_MOVMENT
 10
-22.1664
 20
13.2811
 30
2.1867
 70
32
 0
VERTEX
 8
SPLINE_MOVMENT
 10
-21.8061
 20
13.3377
 30
2.1808
 70
32
 0
VERTEX
 8
SPLINE_MOVMENT
 10
-21.1162
 20
13.4499
 30
2.2468
 70
32
 0
VERTEX
 8
SPLINE_MOVMENT
 10
-19.2799
 20
13.7283
 30
2.6044
 70
32
 0
VERTEX
 8
SPLINE_MOVMENT
 10
-15.2839
 20
14.1191
 30
3.6476
 70
32
 0
VERTEX
 8
SPLINE_MOVMENT
 10
-12.1666
 20
14.1294
 30
4.5114
 70
32
 0
VERTEX
 8
SPLINE_MOVMENT
 10
-9.9598
 20
13.9031
 30
5.0996
 70
32
 0
VERTEX
 8
SPLINE_MOVMENT
 10
-8.2852
 20
13.5379
 30
5.5109
 70
32
 0
VERTEX
 8
SPLINE_MOVMENT
 10
-7.1168
 20
13.1374
 30
5.7665
 70
32
 0
VERTEX
 8
SPLINE_MOVMENT
 10
-6.392
 20
12.8031
 30
5.9052
 70
32
 0
VERTEX
 8
SPLINE_MOVMENT
 10
-5.7181
 20
12.4109
 30
6.0144
 70
32
 0
VERTEX
 8
SPLINE_MOVMENT
 10
-5.1017
 20
11.9569
 30
6.0906
 70
32
 0
VERTEX
 8
SPLINE_MOVMENT
 10
-4.8172
 20
11.7057
 30
6.1153
 70
32
 0
VERTEX
 8
SPLINE_MOVMENT
 10
-4.2995
 20
11.1523
 30
6.1356
 70
32
 0
VERTEX
 8
SPLINE_MOVMENT
 10
-3.2957
 20
10.0891
 30
6.1234
 70
32
 0
VERTEX
 8
SPLINE_MOVMENT
 10
-2.2458
 20
9.2744
 30
6.0881
 70
32
 0
VERTEX
 8
SPLINE_MOVMENT
 10
-1.1567
 20
8.6883
 30
6.0316
 70
32
 0
VERTEX
 8
SPLINE_MOVMENT
 10
-0.0357
 20
8.3104
 30
5.9559
 70
32
 0
VERTEX
 8
SPLINE_MOVMENT
 10
1.1101
 20
8.1209
 30
5.8629
 70
32
 0
VERTEX
 8
SPLINE_MOVMENT
 10
2.2735
 20
8.0995
 30
5.7544
 70
32
 0
VERTEX
 8
SPLINE_MOVMENT
 10
3.4475
 20
8.2262
 30
5.6326
 70
32
 0
VERTEX
 8
SPLINE_MOVMENT
 10
4.6249
 20
8.4809
 30
5.4991
 70
32
 0
VERTEX
 8
SPLINE_MOVMENT
 10
6.3816
 20
9.0589
 30
5.2816
 70
32
 0
VERTEX
 8
SPLINE_MOVMENT
 10
8.669
 20
10.0899
 30
4.9692
 70
32
 0
VERTEX
 8
SPLINE_MOVMENT
 10
15.7554
 20
13.981
 30
3.8219
 70
32
 0
VERTEX
 8
SPLINE_MOVMENT
 10
16.4161
 20
14.2038
 30
3.7004
 70
32
 0
VERTEX
 8
SPLINE_MOVMENT
 10
16.7133
 20
14.2665
 30
3.6447
 70
32
 0
VERTEX
 8
SPLINE_MOVMENT
 10
16.9872
 20
14.2934
 30
3.5926
 70
32
 0
VERTEX
 8
SPLINE_MOVMENT
 10
17.237
 20
14.2819
 30
3.5443
 70
32
 0
VERTEX
 8
SPLINE_MOVMENT
 10
17.4617
 20
14.2295
 30
3.5001
 70
32
 0
VERTEX
 8
SPLINE_MOVMENT
 10
17.6605
 20
14.1338
 30
3.4603
 70
32
 0
VERTEX
 8
SPLINE_MOVMENT
 10
17.8325
 20
13.9922
 30
3.4251
 70
32
 0
VERTEX
 8
SPLINE_MOVMENT
 10
17.9767
 20
13.8022
 30
3.3947
 70
32
 0
VERTEX
 8
SPLINE_MOVMENT
 10
18.0923
 20
13.5613
 30
3.3694
 70
32
 0
VERTEX
 8
SPLINE_MOVMENT
 10
18.1784
 20
13.2669
 30
3.3494
 70
32
 0
VERTEX
 8
SPLINE_MOVMENT
 10
18.234
 20
12.9167
 30
3.3349
 70
32
 0
VERTEX
 8
SPLINE_MOVMENT
 10
18.2391
 20
12.7879
 30
3.3297
 70
32
 0
VERTEX
 8
SPLINE_MOVMENT
 10
18.226
 20
12.5857
 30
3.3171
 70
32
 0
VERTEX
 8
SPLINE_MOVMENT
 10
18.1548
 20
12.1079
 30
3.2677
 70
32
 0
VERTEX
 8
SPLINE_MOVMENT
 10
18.0547
 20
11.5248
 30
3.1634
 70
32
 0
VERTEX
 8
SPLINE_MOVMENT
 10
18.0145
 20
11.2139
 30
3.0783
 70
32
 0
VERTEX
 8
SPLINE_MOVMENT
 10
18.0006
 20
10.9862
 30
2.9941
 70
32
 0
VERTEX
 8
SPLINE_MOVMENT
 10
18.005
 20
10.8334
 30
2.9208
 70
32
 0
VERTEX
 8
SPLINE_MOVMENT
 10
18.0164
 20
10.7419
 30
2.8667
 70
32
 0
VERTEX
 8
SPLINE_MOVMENT
 10
18.0354
 20
10.6601
 30
2.8084
 70
32
 0
VERTEX
 8
SPLINE_MOVMENT
 10
18.0629
 20
10.589
 30
2.7457
 70
32
 0
VERTEX
 8
SPLINE_MOVMENT
 10
18.0996
 20
10.5296
 30
2.6783
 70
32
 0
VERTEX
 8
SPLINE_MOVMENT
 10
18.1216
 20
10.5047
 30
2.6429
 70
32
 0
VERTEX
 8
SPLINE_MOVMENT
 10
18.1462
 20
10.4831
 30
2.6062
 70
32
 0
VERTEX
 8
SPLINE_MOVMENT
 10
18.1735
 20
10.4649
 30
2.5684
 70
32
 0
VERTEX
 8
SPLINE_MOVMENT
 10
18.2036
 20
10.4504
 30
2.5292
 70
32
 0
VERTEX
 8
SPLINE_MOVMENT
 10
18.2725
 20
10.4326
 30
2.4472
 70
32
 0
VERTEX
 8
SPLINE_MOVMENT
 10
18.6587
 20
10.3888
 30
2.051
 70
32
 0
VERTEX
 8
SPLINE_MOVMENT
 10
19.0708
 20
10.3554
 30
1.7069
 70
32
 0
VERTEX
 8
SPLINE_MOVMENT
 10
19.5074
 20
10.3314
 30
1.418
 70
32
 0
VERTEX
 8
SPLINE_MOVMENT
 10
19.8501
 20
10.319
 30
1.2397
 70
32
 0
VERTEX
 8
SPLINE_MOVMENT
 10
20.2052
 20
10.3107
 30
1.0958
 70
32
 0
VERTEX
 8
SPLINE_MOVMENT
 10
20.572
 20
10.3063
 30
0.9877
 70
32
 0
VERTEX
 8
SPLINE_MOVMENT
 10
20.9499
 20
10.3051
 30
0.9168
 70
32
 0
VERTEX
 8
SPLINE_MOVMENT
 10
21.3384
 20
10.3069
 30
0.8845
 70
32
 0
VERTEX
 8
SPLINE_MOVMENT
 10
21.7368
 20
10.311
 30
0.8923
 70
32
 0
VERTEX
 8
SPLINE_MOVMENT
 10
22.1444
 20
10.3171
 30
0.9414
 70
32
 0
VERTEX
 8
SPLINE_MOVMENT
 10
22.5608
 20
10.3246
 30
1.0334
 70
32
 0
VERTEX
 8
SPLINE_MOVMENT
 10
22.9852
 20
10.3333
 30
1.1696
 70
32
 0
VERTEX
 8
SPLINE_MOVMENT
 10
23.5626
 20
10.3456
 30
1.4225
 70
32
 0
VERTEX
 8
SPLINE_MOVMENT
 10
24.0035
 20
10.3549
 30
1.6674
 70
32
 0
VERTEX
 8
SPLINE_MOVMENT
 10
24.6006
 20
10.3664
 30
2.0702
 70
32
 0
VERTEX
 8
SPLINE_MOVMENT
 10
24.955
 20
10.3202
 30
2.3788
 70
32
 0
VERTEX
 8
SPLINE_MOVMENT
 10
25.2697
 20
10.1711
 30
2.7457
 70
32
 0
VERTEX
 8
SPLINE_MOVMENT
 10
25.5458
 20
9.9238
 30
3.1682
 70
32
 0
VERTEX
 8
SPLINE_MOVMENT
 10
25.7841
 20
9.5829
 30
3.6435
 70
32
 0
VERTEX
 8
SPLINE_MOVMENT
 10
25.9858
 20
9.1532
 30
4.1688
 70
32
 0
VERTEX
 8
SPLINE_MOVMENT
 10
26.2833
 20
8.0459
 30
5.3584
 70
32
 0
VERTEX
 8
SPLINE_MOVMENT
 10
26.4463
 20
6.639
 30
6.7148
 70
32
 0
VERTEX
 8
SPLINE_MOVMENT
 10
26.4565
 20
4.0484
 30
9.0138
 70
32
 0
VERTEX
 8
SPLINE_MOVMENT
 10
25.9167
 20
-1.239
 30
13.3655
 70
32
 0
VERTEX
 8
SPLINE_MOVMENT
 10
23.8876
 20
-10.9283
 30
20.9117
 70
32
 0
VERTEX
 8
SPLINE_MOVMENT
 10
21.2917
 20
-19.0172
 30
27.1336
 70
32
 0
VERTEX
 8
SPLINE_MOVMENT
 10
19.1722
 20
-23.6407
 30
30.8057
 70
32
 0
VERTEX
 8
SPLINE_MOVMENT
 10
17.8555
 20
-25.6736
 30
32.5338
 70
32
 0
VERTEX
 8
SPLINE_MOVMENT
 10
16.9759
 20
-26.6424
 30
33.4417
 70
32
 0
VERTEX
 8
SPLINE_MOVMENT
 10
16.5387
 20
-26.9968
 30
33.814
 70
32
 0
VERTEX
 8
SPLINE_MOVMENT
 10
16.1044
 20
-27.2584
 30
34.1283
 70
32
 0
VERTEX
 8
SPLINE_MOVMENT
 10
15.6742
 20
-27.4226
 30
34.3818
 70
32
 0
VERTEX
 8
SPLINE_MOVMENT
 10
15.2491
 20
-27.4846
 30
34.5716
 70
32
 0
VERTEX
 8
SPLINE_MOVMENT
 10
14.83
 20
-27.4398
 30
34.6951
 70
32
 0
VERTEX
 8
SPLINE_MOVMENT
 10
14.4181
 20
-27.2835
 30
34.7493
 70
32
 0
VERTEX
 8
SPLINE_MOVMENT
 10
14.0143
 20
-27.0111
 30
34.7317
 70
32
 0
VERTEX
 8
SPLINE_MOVMENT
 10
13.6196
 20
-26.6179
 30
34.6393
 70
32
 0
VERTEX
 8
SPLINE_MOVMENT
 10
10.0025
 20
-21.9544
 30
33.3579
 70
32
 0
VERTEX
 8
SPLINE_MOVMENT
 10
7.7928
 20
-18.4812
 30
32.3798
 70
32
 0
VERTEX
 8
SPLINE_MOVMENT
 10
6.4424
 20
-15.9762
 30
31.537
 70
32
 0
VERTEX
 8
SPLINE_MOVMENT
 10
5.6086
 20
-14.2378
 30
30.7833
 70
32
 0
VERTEX
 8
SPLINE_MOVMENT
 10
5.0921
 20
-13.094
 30
30.143
 70
32
 0
VERTEX
 8
SPLINE_MOVMENT
 10
4.6442
 20
-12.0909
 30
29.4178
 70
32
 0
VERTEX
 8
SPLINE_MOVMENT
 10
4.3724
 20
-11.502
 30
28.8782
 70
32
 0
VERTEX
 8
SPLINE_MOVMENT
 10
4.1145
 20
-10.978
 30
28.2873
 70
32
 0
VERTEX
 8
SPLINE_MOVMENT
 10
3.8637
 20
-10.52
 30
27.6396
 70
32
 0
VERTEX
 8
SPLINE_MOVMENT
 10
3.6135
 20
-10.1288
 30
26.9296
 70
32
 0
VERTEX
 8
SPLINE_MOVMENT
 10
3.3571
 20
-9.8054
 30
26.152
 70
32
 0
VERTEX
 8
SPLINE_MOVMENT
 10
3.0879
 20
-9.5508
 30
25.3012
 70
32
 0
VERTEX
 8
SPLINE_MOVMENT
 10
2.6455
 20
-9.3
 30
23.8759
 70
32
 0
VERTEX
 8
SPLINE_MOVMENT
 10
2.137
 20
-9.2094
 30
22.2553
 70
32
 0
VERTEX
 8
SPLINE_MOVMENT
 10
1.3173
 20
-9.3434
 30
19.759
 70
32
 0
VERTEX
 8
SPLINE_MOVMENT
 10
1.0932
 20
-9.4418
 30
19.106
 70
32
 0
VERTEX
 8
SPLINE_MOVMENT
 10
0.8789
 20
-9.5947
 30
18.4966
 70
32
 0
VERTEX
 8
SPLINE_MOVMENT
 10
0.6741
 20
-9.7997
 30
17.9296
 70
32
 0
VERTEX
 8
SPLINE_MOVMENT
 10
0.4787
 20
-10.0546
 30
17.4037
 70
32
 0
VERTEX
 8
SPLINE_MOVMENT
 10
0.2923
 20
-10.3569
 30
16.9177
 70
32
 0
VERTEX
 8
SPLINE_MOVMENT
 10
0.1149
 20
-10.7043
 30
16.4702
 70
32
 0
VERTEX
 8
SPLINE_MOVMENT
 10
-0.0538
 20
-11.0946
 30
16.0601
 70
32
 0
VERTEX
 8
SPLINE_MOVMENT
 10
-0.2141
 20
-11.5254
 30
15.6861
 70
32
 0
VERTEX
 8
SPLINE_MOVMENT
 10
-0.51
 20
-12.4991
 30
15.0414
 70
32
 0
VERTEX
 8
SPLINE_MOVMENT
 10
-0.7747
 20
-13.6068
 30
14.5259
 70
32
 0
VERTEX
 8
SPLINE_MOVMENT
 10
-1.0098
 20
-14.83
 30
14.1297
 70
32
 0
VERTEX
 8
SPLINE_MOVMENT
 10
-1.2171
 20
-16.1499
 30
13.8427
 70
32
 0
VERTEX
 8
SPLINE_MOVMENT
 10
-1.4796
 20
-18.2706
 30
13.5951
 70
32
 0
VERTEX
 8
SPLINE_MOVMENT
 10
-1.7483
 20
-21.2631
 30
13.5536
 70
32
 0
VERTEX
 8
SPLINE_MOVMENT
 10
-1.9731
 20
-25.0593
 30
13.8526
 70
32
 0
VERTEX
 8
SPLINE_MOVMENT
 10
-2.1594
 20
-32.2628
 30
15.1466
 70
32
 0
VERTEX
 8
SPLINE_MOVMENT
 10
-2.1576
 20
-35.3525
 30
15.9491
 70
32
 0
SEQEND
 0
ENDSEC
 0
EOF
